{"title":"My.First.Sex.Teacher.RayVeness.XXX.wmv","uid":10618613,"size":120801693,"categoryP":"porn","categoryS":"movie_clips","magnet":"?xt=urn:btih:690573229be073af71058dd9b30ee95db0d42cec&amp;dn=My.First.Sex.Teacher.RayVeness.XXX.wmv&amp;tr=udp%3A%2F%2Ftracker.openbittorrent.com%3A80&amp;tr=udp%3A%2F%2Fopen.demonii.com%3A1337&amp;tr=udp%3A%2F%2Ftracker.coppersurfer.tk%3A6969&amp;tr=udp%3A%2F%2Fexodus.desync.com%3A6969","seeders":1,"leechers":0,"uploader":"XXXmegathor","files":1,"time":1406149962,"description":"My.First.Sex.Teacher.RayVeness.XXX\n\nSCREENIES &lt;a href=&quot;\nhttp://www.xxxtrapics.com/image/R8&quot; rel=&quot;nofollow&quot; target=&quot;_NEW&quot;&gt;\nhttp://www.xxxtrapics.com/image/R8&lt;/a&gt;\n\n\nDuration : 26mn 15s\nBit rate mode : Constant\nBit rate : 512 Kbps\nWidth : 850 pixels\nHeight : 480 pixels\nDisplay aspect ratio : 16:9\nFrame rate : 29.970 fps\nBit depth : 8 bits\nScan type : Progressive\nCompression mode : Lossy\nBits/(Pixel*Frame) : 0.042\nStream size : 96.1 MiB (83%)\nLanguage : English (US)\n\nAudio\nID : 1\nFormat : WMA\nFormat version : Version 2\nCodec ID : 161\nCodec ID/Info : Windows Media Audio\nDescription of the codec : Windows Media Audio 9.2 - 96 kbps, 48 kHz, stereo (A/V) 1-pass CBR\nDuration : 26mn 15s\nBit rate mode : Constant\nBit rate : 96.0 Kbps\nChannel(s) : 2 channels\nSampling rate : 48.0 KHz\nBit depth : 16 bits\nStream size : 18.0 MiB (16%)\nLanguage : English (US)\n\n\n","torrent":{"xt":"urn:btih:690573229be073af71058dd9b30ee95db0d42cec","amp;dn":"My.First.Sex.Teacher.RayVeness.XXX.wmv","amp;tr":["udp%3A%2F%2Ftracker.openbittorrent.com%3A80","udp%3A%2F%2Fopen.demonii.com%3A1337","udp%3A%2F%2Ftracker.coppersurfer.tk%3A6969","udp%3A%2F%2Fexodus.desync.com%3A6969"],"infoHash":"690573229be073af71058dd9b30ee95db0d42cec","infoHashBuffer":{"type":"Buffer","data":[105,5,115,34,155,224,115,175,113,5,141,217,179,14,233,93,176,212,44,236]},"announce":[],"urlList":[]}}